<?xml version="1.0" encoding="utf-8"?>
<!-- Generator: Adobe Illustrator 19.0.0, SVG Export Plug-In . SVG Version: 6.00 Build 0)  -->
<svg version="1.1" id="Layer_1" xmlns="http://www.w3.org/2000/svg" xmlns:xlink="http://www.w3.org/1999/xlink" x="0px" y="0px"
	 width="100px" height="100px" viewBox="0 0 100 100" style="enable-background:new 0 0 100 100;" xml:space="preserve">
<style type="text/css">
	.Drop_x0020_Shadow{fill:none;}
	.Round_x0020_Corners_x0020_2_x0020_pt{fill:#FFFFFF;stroke:#000000;stroke-miterlimit:10;}
	.Live_x0020_Reflect_x0020_X{fill:none;}
	.Bevel_x0020_Soft{fill:url(#SVGID_1_);}
	.Dusk{fill:#FFFFFF;}
	.Foliage_GS{fill:#FFDD00;}
	.Pompadour_GS{fill-rule:evenodd;clip-rule:evenodd;fill:#44ADE2;}
	.st0{fill:none;stroke:#5066AF;stroke-width:3;stroke-miterlimit:10;}
	.st1{fill:none;stroke:#F79420;stroke-width:3;stroke-linecap:round;stroke-linejoin:round;stroke-miterlimit:10;}
	
		.st2{opacity:0.27;fill:none;stroke:#5066AF;stroke-width:3;stroke-linecap:round;stroke-linejoin:round;stroke-miterlimit:10;enable-background:new    ;}
	
		.st3{opacity:0.11;fill:none;stroke:#5066AF;stroke-width:3;stroke-linecap:round;stroke-linejoin:round;stroke-miterlimit:10;enable-background:new    ;}
</style>
<linearGradient id="SVGID_1_" gradientUnits="userSpaceOnUse" x1="0" y1="0" x2="0.7071" y2="0.7071">
	<stop  offset="0" style="stop-color:#DEDFE3"/>
	<stop  offset="0.1738" style="stop-color:#D8D9DD"/>
	<stop  offset="0.352" style="stop-color:#C9CACD"/>
	<stop  offset="0.5323" style="stop-color:#B4B5B8"/>
	<stop  offset="0.7139" style="stop-color:#989A9C"/>
	<stop  offset="0.8949" style="stop-color:#797C7E"/>
	<stop  offset="1" style="stop-color:#656B6C"/>
</linearGradient>
<g id="XMLID_2_">
	<path id="XMLID_199_" class="st0" d="M39.2,74.3H12.8c-3.4,0-6.2-2.8-6.2-6.2V17.9c0-3.4,2.8-6.2,6.2-6.2h50.3
		c3.4,0,6.2,2.8,6.2,6.2v45.6"/>
	<path id="XMLID_200_" class="st0" d="M12.8,11.8L54,1.4c3.4,0,6.2,2.8,6.2,6.2v4.3"/>
	<g id="XMLID_421_">
		<path id="XMLID_432_" class="st1" d="M58.4,95.7L39.9,85c-1.9-1.2-2.7-3.8-1.3-5.5l0,0c1.2-1.9,4-2.7,5.9-1.1l5.6,3.7"/>
		<g id="XMLID_426_">
			<path id="XMLID_431_" class="st1" d="M60.3,99L47,76.7c0-0.2,0,0-0.4-0.9c0-0.2-1.2-2.6-1.4-2.7l-7.8-14.2
				c-0.9-1.6-0.3-3.5,1.2-4l1.7-1c1.6-0.9,3.8-0.3,4.6,0.9l9.7,18.1c0.1-1.2,0.6-1.8,1.5-2.5l1.7-1c1.6-0.9,3.5-0.3,4,1.2l0.2,0.6
				l0.5-0.2c-0.3-1.3,0.5-2.4,1.6-3.1l1.7-1c1.6-0.9,3.5-0.3,4,1.2l0.6,0.9l0.5-0.2c-0.1-1,0.5-2.4,1.6-2.8l1.7-1
				c0.9-0.6,1.9-0.5,2.9-0.1c1.1,0.7,1.3,2,2.1,3.1c1.9,3.3,3.9,7,5.5,10.5l6.7,12.6"/>
		</g>
	</g>
	<path id="XMLID_202_" class="st2" d="M52.2,63.5c0.8-1.6,1.3-3.4,1.3-5.2c0-6.5-5.2-11.8-11.8-11.8s-11.9,5.2-11.9,11.8
		S35.1,70,41.6,70"/>
	<path id="XMLID_203_" class="st3" d="M59.8,67.3c1.4-2.8,2.1-5.8,2.1-9c0-11.1-9-20.2-20.2-20.2s-20.2,9-20.2,20.2
		c0,5.1,1.8,9.7,5,13.3"/>
</g>
</svg>
