<?xml version="1.0" encoding="utf-8"?>
<!-- Generator: Adobe Illustrator 19.0.0, SVG Export Plug-In . SVG Version: 6.00 Build 0)  -->
<svg version="1.1" id="Layer_1" xmlns="http://www.w3.org/2000/svg" xmlns:xlink="http://www.w3.org/1999/xlink" x="0px" y="0px"
	 width="100px" height="100px" viewBox="0 0 100 100" style="enable-background:new 0 0 100 100;" xml:space="preserve">
<style type="text/css">
	.Drop_x0020_Shadow{fill:none;}
	.Round_x0020_Corners_x0020_2_x0020_pt{fill:#FFFFFF;stroke:#000000;stroke-miterlimit:10;}
	.Live_x0020_Reflect_x0020_X{fill:none;}
	.Bevel_x0020_Soft{fill:url(#SVGID_1_);}
	.Dusk{fill:#FFFFFF;}
	.Foliage_GS{fill:#FFDD00;}
	.Pompadour_GS{fill-rule:evenodd;clip-rule:evenodd;fill:#44ADE2;}
	.st0{fill:none;stroke:#F79420;stroke-width:3;stroke-linecap:round;stroke-linejoin:round;stroke-miterlimit:10;}
	.st1{fill:none;stroke:#5066AF;stroke-width:3;stroke-linecap:round;stroke-linejoin:round;stroke-miterlimit:10;}
</style>
<linearGradient id="SVGID_1_" gradientUnits="userSpaceOnUse" x1="0" y1="0" x2="0.7071" y2="0.7071">
	<stop  offset="0" style="stop-color:#DEDFE3"/>
	<stop  offset="0.1738" style="stop-color:#D8D9DD"/>
	<stop  offset="0.352" style="stop-color:#C9CACD"/>
	<stop  offset="0.5323" style="stop-color:#B4B5B8"/>
	<stop  offset="0.7139" style="stop-color:#989A9C"/>
	<stop  offset="0.8949" style="stop-color:#797C7E"/>
	<stop  offset="1" style="stop-color:#656B6C"/>
</linearGradient>
<g id="XMLID_4_">
	<polyline id="XMLID_62_" class="st0" points="38.7,62.8 49.6,48.6 49.6,79.2 	"/>
	<line id="XMLID_61_" class="st0" x1="61.4" y1="62.5" x2="49.6" y2="48.6"/>
	<line id="XMLID_63_" class="st0" x1="49.6" y1="86.6" x2="49.6" y2="95"/>
	<path id="XMLID_2_" class="st1" d="M36.6,79.7H6.5c-2.1,0-3.8-1.7-3.8-3.8V7c0-2.1,1.7-3.8,3.8-3.8h20.8c1.4,0,2.6,0.7,3.3,2
		L37.7,18c0.6,1.2,2,2,3.3,2h52.3c2.1,0,3.8,1.7,3.8,3.8v52.1c0,2.1-1.7,3.8-3.8,3.8H63"/>
	<path id="XMLID_1_" class="st1" d="M32.5,8.9h54c2.5,0,4.6,2.1,4.6,4.6V20"/>
</g>
</svg>
