<?xml version="1.0" encoding="utf-8"?>
<!-- Generator: Adobe Illustrator 19.0.0, SVG Export Plug-In . SVG Version: 6.00 Build 0)  -->
<svg version="1.1" id="Layer_1" xmlns="http://www.w3.org/2000/svg" xmlns:xlink="http://www.w3.org/1999/xlink" x="0px" y="0px"
	 width="100px" height="100px" viewBox="0 0 100 100" style="enable-background:new 0 0 100 100;" xml:space="preserve">
<style type="text/css">
	.Drop_x0020_Shadow{fill:none;}
	.Round_x0020_Corners_x0020_2_x0020_pt{fill:#FFFFFF;stroke:#000000;stroke-miterlimit:10;}
	.Live_x0020_Reflect_x0020_X{fill:none;}
	.Bevel_x0020_Soft{fill:url(#SVGID_1_);}
	.Dusk{fill:#FFFFFF;}
	.Foliage_GS{fill:#FFDD00;}
	.Pompadour_GS{fill-rule:evenodd;clip-rule:evenodd;fill:#44ADE2;}
	.st0{fill:none;stroke:#5066AF;stroke-width:3.9414;stroke-miterlimit:10;}
	.st1{fill:none;stroke:#F79420;stroke-width:3.9414;stroke-linecap:round;stroke-linejoin:round;stroke-miterlimit:10;}
</style>
<linearGradient id="SVGID_1_" gradientUnits="userSpaceOnUse" x1="0" y1="0" x2="0.7071" y2="0.7071">
	<stop  offset="0" style="stop-color:#DEDFE3"/>
	<stop  offset="0.1738" style="stop-color:#D8D9DD"/>
	<stop  offset="0.352" style="stop-color:#C9CACD"/>
	<stop  offset="0.5323" style="stop-color:#B4B5B8"/>
	<stop  offset="0.7139" style="stop-color:#989A9C"/>
	<stop  offset="0.8949" style="stop-color:#797C7E"/>
	<stop  offset="1" style="stop-color:#656B6C"/>
</linearGradient>
<g>
	<path id="XMLID_303_" class="st0" d="M50.8,75.1L50.8,75.1c-3.7,0-6.7-2.2-7.1-5.3l-4.9-38.3C38.4,28,41.7,25,45.9,25h9.7
		c4.1,0,7.5,3,7.1,6.5L58,69.8C57.5,72.9,54.4,75.1,50.8,75.1z"/>
	<circle id="XMLID_302_" class="st0" cx="50.6" cy="11.1" r="8.5"/>
	<path id="XMLID_300_" class="st1" d="M64.4,62.1c7.3,2.2,12.3,6.1,12.3,10.5c0,6.9-11.5,12.4-25.5,12.4s-25.5-5.6-25.5-12.4
		c0-4.3,4.6-8.1,11.6-10.4"/>
	<path id="XMLID_299_" class="st1" d="M66.2,51.5c17.1,3.3,29.4,12,29.4,22.2c0,13-20.1,23.6-45,23.6S5.7,86.7,5.7,73.7
		c0-9.9,11.6-18.3,28.2-21.9"/>
</g>
</svg>
