<svg xmlns="http://www.w3.org/2000/svg" xmlns:xlink="http://www.w3.org/1999/xlink" viewBox="0 0 1316.24 313.93"><defs><linearGradient id="linear-gradient" x1="-5.57" y1="16.33" x2="261.84" y2="361.33" gradientUnits="userSpaceOnUse"><stop offset="0" stop-color="#fbb03b"/><stop offset="0.44" stop-color="#f6832f"/><stop offset="0.8" stop-color="#f26527"/><stop offset="1" stop-color="#f15a24"/></linearGradient><linearGradient id="linear-gradient-2" x1="217.1" y1="220.7" x2="15.94" y2="111.12" gradientUnits="userSpaceOnUse"><stop offset="0" stop-color="#fff"/><stop offset="0.18" stop-color="#f1cfd0"/><stop offset="0.23" stop-color="#edc3c4"/><stop offset="0.5" stop-color="#db8084"/><stop offset="0.73" stop-color="#cd5055"/><stop offset="0.9" stop-color="#c43238"/><stop offset="1" stop-color="#c1272d"/></linearGradient></defs><title>healthfile_logo (1)</title><g style="isolation:isolate"><g id="Layer_1" data-name="Layer 1"><path d="M200.41.59l-182.86,58,202.07-1.48v-42A15.07,15.07,0,0,0,200.41.59Z" transform="translate(-2)" fill="#0d1fce"/><rect y="56.54" width="250.45" height="257.07" rx="21.87" ry="21.87" fill="url(#linear-gradient)"/><path d="M128.11,107.66,252.24,147V282.26s4.62,31.34-29,31.34l-5.43.33-94-56.23Z" transform="translate(-2)" opacity="0.95" fill="url(#linear-gradient-2)" style="mix-blend-mode:multiply"/><path d="M185.91,167.48H154.62a13.54,13.54,0,0,1-13.76-14v-30.4c0-7.54-5.28-14.44-12.75-15.46-9.54-1.3-17.1,6.08-17.1,15.28v30.58c0,7.91-7,14-14.9,14H66.78c-7.54,0-14.44,5.28-15.46,12.75-1.3,9.54,6.08,17.1,15.28,17.1H96.11c7.91,0,14.9,6.79,14.9,14.7v30.22c0,7.54,5.28,14.44,12.75,15.46,9.54,1.3,17.1-6.08,17.1-15.28V212c0-7.91,5.85-14.7,13.76-14.7h31.47c9.2,0,16.58-7.56,15.28-17.1C200.35,172.76,193.45,167.48,185.91,167.48Z" transform="translate(-2)" fill="#fff"/><polygon points="23.95 56.54 217.56 56.19 217.59 44.39 25.21 55.04 23.95 56.54" fill="#1b1464" opacity="0.27" style="mix-blend-mode:multiply"/><path d="M369.5,156.46q9.09-5.82,22.4-5.83a47.66,47.66,0,0,1,19.38,3.62,36.17,36.17,0,0,1,13.55,10.17,43,43,0,0,1,7.93,15.39,69.12,69.12,0,0,1,2.56,19.38v56.49c0,4.22-1,7.09-2.9,8.64a11.45,11.45,0,0,1-7.35,2.35h-2.58a11.34,11.34,0,0,1-7.47-2.35c-1.87-1.55-2.79-4.42-2.79-8.64v-53.9q0-14.73-6.89-22.77t-19-8.07q-14.47,0-23,8.76c-5.66,5.86-8.5,13.9-8.5,24.18v51.8c0,4.22-1,7.09-2.93,8.64a11.45,11.45,0,0,1-7.35,2.35H342a11.37,11.37,0,0,1-7.5-2.35c-1.87-1.55-2.79-4.42-2.79-8.64V107.9c0-.29.8-.8,2.44-1.49a14.82,14.82,0,0,1,6-1.06,18.81,18.81,0,0,1,5.23.8,11.3,11.3,0,0,1,4.8,3,16.16,16.16,0,0,1,3.39,6.09,31.63,31.63,0,0,1,1.29,9.91v46A47.66,47.66,0,0,1,369.5,156.46Z" transform="translate(-2)" fill="#4162ff"/><path d="M486,229.89a35.46,35.46,0,0,0,8,11A34.69,34.69,0,0,0,505.59,248a40.89,40.89,0,0,0,14.7,2.58A50.79,50.79,0,0,0,533.39,249a37.07,37.07,0,0,0,9.79-4.11,30.8,30.8,0,0,0,7.24-5.94,40.28,40.28,0,0,0,5.14-7.12c.14-.14.86-.06,2.1.23a18.87,18.87,0,0,1,4.08,1.64,13.26,13.26,0,0,1,4.11,3.5,9.51,9.51,0,0,1,1.87,6.09c0,2.47-1.06,5.2-3.16,8.16a32.32,32.32,0,0,1-9.33,8.3,60.13,60.13,0,0,1-15.08,6.4,72.61,72.61,0,0,1-20.3,2.58,67,67,0,0,1-24.27-4.22,52.38,52.38,0,0,1-18.69-11.89,54.15,54.15,0,0,1-12-18.58,67.51,67.51,0,0,1,0-47.61,56.43,56.43,0,0,1,12-18.78,55.63,55.63,0,0,1,18.21-12.49A56.85,56.85,0,0,1,518,150.63,57.8,57.8,0,0,1,540,154.71a49,49,0,0,1,17.06,11.57,51.78,51.78,0,0,1,11,17.86,65.92,65.92,0,0,1,3.85,23V209c0,2.47-.52,4.22-1.52,5.23s-2.84,1.52-5.48,1.52H482.25A41.7,41.7,0,0,0,486,229.89Zm63.49-29.75c-.6-9.82-3.73-17.6-9.33-23.35s-13.07-8.64-22.4-8.64a35.2,35.2,0,0,0-13,2.33,33.23,33.23,0,0,0-10.63,6.66,36.28,36.28,0,0,0-7.7,10.14,42.63,42.63,0,0,0-4.22,12.87Z" transform="translate(-2)" fill="#4162ff"/><path d="M670,195.92c0-8.56-2.38-15.08-7.12-19.61s-11.63-6.75-20.68-6.75q-12.84,0-20.53,5.71A38.73,38.73,0,0,0,610,188.68a23.16,23.16,0,0,1-7.12-1.26,13.62,13.62,0,0,1-4.91-3.39,9,9,0,0,1-2.21-6.55c0-2.64,1-5.57,3-8.76a30.33,30.33,0,0,1,9.1-8.76,57.47,57.47,0,0,1,15.08-6.63,72.36,72.36,0,0,1,20.88-2.7q24,0,36.56,11.69t12.46,33.14v68.86c0,.63-.83,1.21-2.56,1.75a19.17,19.17,0,0,1-5.83.83,13.89,13.89,0,0,1-10.05-3.85q-4-3.88-4.19-14.36a44.07,44.07,0,0,1-16.8,14.36,52.38,52.38,0,0,1-23.58,5.23q-18.22,0-28.26-8.73c-6.69-5.86-10.05-13.58-10.05-23.23q0-19.64,18.58-28.49t56.83-9.56h3Zm-34.55,55.8a41.81,41.81,0,0,0,13.87-2.21,31.65,31.65,0,0,0,11-6.29,29,29,0,0,0,7.12-9.71A28.63,28.63,0,0,0,670,221.36v-8.61l-6.32.23c-16.48.6-28.86,2.61-37.1,5.94s-12.38,8.84-12.38,16.45a14.41,14.41,0,0,0,5.6,11.92Q625.37,251.73,635.42,251.71Z" transform="translate(-2)" fill="#4162ff"/><path d="M728.66,264.32c-2-1.55-2.93-4.42-2.93-8.64V107.9c0-.29.86-.8,2.58-1.49a14.86,14.86,0,0,1,5.83-1.06,18.56,18.56,0,0,1,5.37.8,11.48,11.48,0,0,1,4.68,3,16.56,16.56,0,0,1,3.39,6.09,32.6,32.6,0,0,1,1.26,9.91V255.68c0,4.22-.92,7.09-2.79,8.64a11.34,11.34,0,0,1-7.47,2.35h-2.35A11.83,11.83,0,0,1,728.66,264.32Z" transform="translate(-2)" fill="#4162ff"/><path d="M912.27,156.46q9.09-5.82,22.4-5.83a47.66,47.66,0,0,1,19.38,3.62,36.17,36.17,0,0,1,13.55,10.17,43,43,0,0,1,7.93,15.39,69.12,69.12,0,0,1,2.56,19.38v56.49c0,4.22-1,7.09-2.9,8.64a11.45,11.45,0,0,1-7.35,2.35h-2.58a11.34,11.34,0,0,1-7.47-2.35c-1.87-1.55-2.79-4.42-2.79-8.64v-53.9Q955,187,948.11,179t-19-8.07q-14.47,0-23,8.76c-5.66,5.86-8.5,13.9-8.5,24.18v51.8c0,4.22-1,7.09-2.93,8.64a11.45,11.45,0,0,1-7.35,2.35h-2.56a11.37,11.37,0,0,1-7.5-2.35c-1.87-1.55-2.79-4.42-2.79-8.64V107.9c0-.29.8-.8,2.44-1.49a14.82,14.82,0,0,1,6-1.06,18.81,18.81,0,0,1,5.23.8,11.3,11.3,0,0,1,4.8,3,16.16,16.16,0,0,1,3.39,6.09,31.63,31.63,0,0,1,1.29,9.91v46A47.66,47.66,0,0,1,912.27,156.46Z" transform="translate(-2)" fill="#4162ff"/><path d="M1109.53,129.38c-4.36,0-7.75-1.12-10.17-3.39s-3.62-5.4-3.62-9.45,1.21-7.44,3.62-9.68,5.89-3.39,10.4-3.39c9,0,13.55,4.36,13.55,13.07S1118.72,129.38,1109.53,129.38Zm-8.76,134.94c-2-1.55-2.93-4.42-2.93-8.64V163.47c0-4.19,1-7.12,2.93-8.76a11.55,11.55,0,0,1,7.58-2.44h2.35a11.33,11.33,0,0,1,7.47,2.33c1.87,1.58,2.79,4.54,2.79,8.87v92.21c0,4.22-.92,7.09-2.79,8.64a11.34,11.34,0,0,1-7.47,2.35h-2.35A11.83,11.83,0,0,1,1100.77,264.32Z" transform="translate(-2)" fill="#f7931e"/><path d="M1159.12,264.32c-2-1.55-2.93-4.42-2.93-8.64V107.9c0-.29.86-.8,2.58-1.49a14.86,14.86,0,0,1,5.83-1.06,18.56,18.56,0,0,1,5.37.8,11.48,11.48,0,0,1,4.68,3,16.56,16.56,0,0,1,3.39,6.09,32.6,32.6,0,0,1,1.26,9.91V255.68c0,4.22-.92,7.09-2.79,8.64a11.34,11.34,0,0,1-7.47,2.35h-2.35A11.83,11.83,0,0,1,1159.12,264.32Z" transform="translate(-2)" fill="#f7931e"/><path d="M1232.32,229.89a35.46,35.46,0,0,0,8,11,34.69,34.69,0,0,0,11.66,7.12,40.89,40.89,0,0,0,14.7,2.58,50.79,50.79,0,0,0,13.09-1.52,37.07,37.07,0,0,0,9.79-4.11,30.8,30.8,0,0,0,7.24-5.94,40.28,40.28,0,0,0,5.14-7.12c.14-.14.86-.06,2.1.23a18.87,18.87,0,0,1,4.08,1.64,13.26,13.26,0,0,1,4.11,3.5,9.51,9.51,0,0,1,1.87,6.09c0,2.47-1.06,5.2-3.16,8.16a32.32,32.32,0,0,1-9.33,8.3,60.13,60.13,0,0,1-15.08,6.4,72.61,72.61,0,0,1-20.3,2.58,67,67,0,0,1-24.27-4.22,52.38,52.38,0,0,1-18.69-11.89,54.15,54.15,0,0,1-12-18.58,67.51,67.51,0,0,1,0-47.61,56.43,56.43,0,0,1,12-18.78,55.63,55.63,0,0,1,18.21-12.49,56.85,56.85,0,0,1,22.89-4.57,57.8,57.8,0,0,1,22.05,4.08,49,49,0,0,1,17.06,11.57,51.78,51.78,0,0,1,11,17.86,65.92,65.92,0,0,1,3.85,23V209c0,2.47-.52,4.22-1.52,5.23s-2.84,1.52-5.48,1.52h-82.65A41.7,41.7,0,0,0,1232.32,229.89Zm63.49-29.75c-.6-9.82-3.73-17.6-9.33-23.35s-13.07-8.64-22.4-8.64a35.2,35.2,0,0,0-13,2.33,33.23,33.23,0,0,0-10.63,6.66,36.28,36.28,0,0,0-7.7,10.14,42.63,42.63,0,0,0-4.22,12.87Z" transform="translate(-2)" fill="#f7931e"/><path d="M823.5,172.34h15.92c3.59,0,6.15-.72,7.7-2.21s2.35-3.7,2.35-6.66v-1.64q0-4.18-2.24-6.29c-1.46-1.41-4-2.1-7.58-2.1H823.5Z" transform="translate(-2)" fill="#4162ff"/><path d="M850.39,246.95a11.39,11.39,0,0,0-2.1-3.16,7.92,7.92,0,0,0-2.21-1.64c-.72-.32-1.15-.4-1.29-.23a20,20,0,0,1-6.55,5.71,18.62,18.62,0,0,1-9.33,2.21c-5.43,0-9.3-1.69-11.54-5.14S814,236.09,814,229.08l.23-75.64V136.16c0-4.36-.89-7.27-2.67-8.76a11.34,11.34,0,0,0-7.35-2.21h-2.35a10.93,10.93,0,0,0-7.47,2.44c-1.87,1.64-2.79,4.48-2.79,8.53v17.29H783.4c-3.59,0-6.15.72-7.7,2.21a8.48,8.48,0,0,0-2.35,6.4v1.64a8.46,8.46,0,0,0,2.35,6.43c1.55,1.49,4.11,2.21,7.7,2.21h8.18v59.3q0,18.22,8,27.65t25.56,9.48q12.62,0,19.38-5.26t6.78-11.8A10.94,10.94,0,0,0,850.39,246.95Z" transform="translate(-2)" fill="#4162ff"/><path d="M1062.15,153.44h-9.8v18.9h9.8c3.73,0,6.38-.72,7.93-2.21a8.46,8.46,0,0,0,2.35-6.43v-1.64a8.48,8.48,0,0,0-2.35-6.4C1068.52,154.16,1065.88,153.44,1062.15,153.44Z" transform="translate(-2)" fill="#f7931e"/><path d="M1075.67,108.27q-6.07-4.57-19.13-4.57-16.8,0-26.28,10.05T1020.82,145v8.41h-13.07c-3.73,0-6.4.69-8,2.1s-2.33,3.5-2.33,6.29v1.64c0,3,.78,5.2,2.33,6.66s4.22,2.21,8,2.21h13.07v83.34c0,4.22,1,7.09,2.93,8.64a11.72,11.72,0,0,0,7.58,2.35h2.33a10.86,10.86,0,0,0,7.35-2.35c1.78-1.55,2.7-4.42,2.7-8.64l-.49-110.42q0-11.89,3.88-17.37t12.23-5.51a24.79,24.79,0,0,1,16.83,6.55c.14.17.49,0,1-.46a14.3,14.3,0,0,0,1.87-2,12.57,12.57,0,0,0,1.87-3.27,11.18,11.18,0,0,0,.83-4.31C1081.76,114.85,1079.72,111.29,1075.67,108.27Z" transform="translate(-2)" fill="#f7931e"/></g></g></svg>