<?xml version="1.0" encoding="utf-8"?>
<!-- Generator: Adobe Illustrator 21.0.2, SVG Export Plug-In . SVG Version: 6.00 Build 0)  -->
<svg version="1.1" id="Layer_1" xmlns="http://www.w3.org/2000/svg" xmlns:xlink="http://www.w3.org/1999/xlink" x="0px" y="0px"
	 viewBox="0 0 89.3 98.9" style="enable-background:new 0 0 89.3 98.9;" xml:space="preserve">
<style type="text/css">
	.st0{fill:#5066AF;}
	.st1{fill:#F79420;}
</style>
<title>01.RELIABLE_icon</title>
<g id="Layer_1_1_">
	<g>
		<path class="st0" d="M42,98.9c-0.5,0-1-0.1-1.4-0.3c-1-0.4-1.8-0.8-2.5-1.2c-3.8-2.2-7.3-4.7-10.6-7.6l-0.4-0.3
			C20,83.7,14.1,76,9,66.2C6.3,60.7,4.2,54.9,2.9,49C1.7,44.1,0.9,39.1,0.8,34c-0.1-3.6-0.3-7.2-0.5-10.8l-0.1-2.9c0,0,0,0,0,0
			c0,0,0,0,0-0.1L0,19.7c0-0.1,0-0.2,0-0.3v-4.7c0-1.3,0.9-2.4,2.2-2.6l2.3-0.4c1-0.2,2-0.3,3-0.5l3.4-0.6c3.2-0.6,6.1-1.1,8.9-1.8
			C25.7,7.1,31.5,4.9,37,2c0.7-0.3,1.3-0.7,1.9-1l1.4-0.7C40.7,0.1,41.1,0,41.6,0c0,0,0,0,0,0h1.1c0.5,0,1.1,0.2,1.5,0.5l0.3,0.2
			l1.7,0.8C47.8,2.3,49.4,3,51,3.8c6.2,3,12.9,5.1,19.7,6.3l11.4,2c1.2,0.2,2.2,1.3,2.2,2.6v4.1l-0.3,6.1c-0.1,1.3-0.1,2.6-0.2,3.9
			l-0.1,1.4c-0.1,2.3-0.2,4.7-0.4,7.1c-0.5,5.3-1.4,10.5-2.9,15.6L77.2,52c1.4-4.9,2.3-9.9,2.8-14.9c0.2-2.3,0.3-4.7,0.4-7l0.1-1.4
			c0.1-1.3,0.1-2.6,0.2-3.9l0.3-6.1l0-3.5l-10.9-1.9C63,12,56.1,9.8,49.6,6.7c-1.6-0.8-3.2-1.6-4.8-2.3l-1.6-0.8
			c-0.3-0.1-0.4-0.3-0.6-0.4l0,0l-0.8,0l-1.3,0.7c-0.7,0.3-1.3,0.7-2,1c-5.7,2.9-11.7,5.2-17.9,6.9c-3,0.7-5.9,1.3-9.1,1.9l-3.4,0.6
			c-1,0.2-2,0.4-3.1,0.5l-1.8,0.3l0,4.4c0,0.1,0.1,0.3,0.1,0.5L3.4,23c0.2,3.6,0.4,7.2,0.5,10.9c0.2,4.8,0.9,9.6,2,14.3
			c1.3,5.7,3.3,11.2,5.8,16.5c4.9,9.4,10.6,16.8,17.4,22.4l0.4,0.3c3.1,2.7,6.5,5.2,10.1,7.2c0.6,0.3,1.3,0.6,2.2,1
			c0.1,0,0.1,0,0.2,0c0,0,0,0,0,0h0.1l0.5-0.2c0.9-0.4,1.8-0.8,2.6-1.2c3-1.7,5.8-3.8,8.5-6l2.1,2.4c-2.8,2.4-5.8,4.6-9,6.4
			c-1,0.5-2,1-3,1.4l-0.4,0.2c-0.3,0.1-0.7,0.2-1,0.2L42,98.9C42,98.9,42,98.9,42,98.9z M81.5,15.3C81.5,15.3,81.5,15.3,81.5,15.3
			L81.5,15.3z M2.7,15.2L2.7,15.2C2.7,15.2,2.7,15.2,2.7,15.2z M81,14.7C81,14.7,81,14.7,81,14.7L81,14.7z M3.2,14.6L3.2,14.6
			C3.2,14.7,3.2,14.6,3.2,14.6z M41.6,3.2L41.6,3.2C41.6,3.2,41.6,3.2,41.6,3.2z M42.7,3.2C42.7,3.2,42.7,3.2,42.7,3.2L42.7,3.2z
			 M41.9,3.1L41.9,3.1C41.8,3.1,41.9,3.1,41.9,3.1z"/>
	</g>
	<g>
		<path class="st1" d="M65.1,79.9c-0.4,0-0.8-0.1-1.1-0.4l-6.1-5.5c-0.7-0.6-0.7-1.6-0.1-2.3c0.6-0.7,1.6-0.7,2.3-0.1l4.9,4.4
			l10-12.3c0.6-0.7,1.6-0.8,2.2-0.2c0.7,0.6,0.8,1.6,0.2,2.2l-11,13.6c-0.3,0.3-0.7,0.6-1.1,0.6C65.2,79.9,65.1,79.9,65.1,79.9z"/>
	</g>
	<g>
		<path class="st1" d="M66.9,93.3c-12.3,0-22.4-10-22.4-22.4s10-22.4,22.4-22.4s22.4,10,22.4,22.4S79.3,93.3,66.9,93.3z M66.9,51.7
			c-10.6,0-19.2,8.6-19.2,19.2s8.6,19.2,19.2,19.2s19.2-8.6,19.2-19.2S77.5,51.7,66.9,51.7z"/>
	</g>
</g>
</svg>
