<?xml version="1.0" encoding="utf-8"?>
<!-- Generator: Adobe Illustrator 21.0.2, SVG Export Plug-In . SVG Version: 6.00 Build 0)  -->
<svg version="1.1" id="Layer_1" xmlns="http://www.w3.org/2000/svg" xmlns:xlink="http://www.w3.org/1999/xlink" x="0px" y="0px"
	 viewBox="0 0 60 60" style="enable-background:new 0 0 60 60;" xml:space="preserve">
<style type="text/css">
	.st0{fill:none;stroke:#4162FF;stroke-width:3;stroke-miterlimit:10;}
	.st1{fill:none;stroke:#F7931D;stroke-width:3;stroke-linecap:round;stroke-linejoin:round;stroke-miterlimit:10;}
	.st2{opacity:0.27;fill:none;stroke:#4162FF;stroke-width:3;stroke-linecap:round;stroke-linejoin:round;stroke-miterlimit:10;}
	.st3{opacity:0.11;fill:none;stroke:#4162FF;stroke-width:3;stroke-linecap:round;stroke-linejoin:round;stroke-miterlimit:10;}
	.st4{fill:none;stroke:#4162FF;stroke-width:3.9414;stroke-miterlimit:10;}
	.st5{fill:none;stroke:#F7931D;stroke-width:3.9414;stroke-linecap:round;stroke-linejoin:round;stroke-miterlimit:10;}
	.st6{fill:none;stroke:#4162FF;stroke-width:3;stroke-linecap:round;stroke-linejoin:round;stroke-miterlimit:10;}
	.st7{fill:#F89433;stroke:#F89433;stroke-width:1.0005;stroke-miterlimit:10;}
	.st8{fill:#475993;}
	.st9{fill:#FFFFFF;}
	.st10{fill:#0077B7;}
	.st11{fill:#76A9EA;}
	.st12{fill:url(#SVGID_1_);}
	.st13{fill:url(#SVGID_2_);}
	.st14{opacity:0.95;fill:url(#SVGID_3_);}
	.st15{opacity:0.27;fill:#1B1464;}
	.st16{fill:#4162FF;}
	.st17{fill:#F7931E;}
</style>
<g>
	<path class="st7" d="M30,1.3c-4.8,0-9.6,1.2-13.9,3.5c-0.6,0.3-0.8,1-0.5,1.6c0.3,0.6,1,0.8,1.6,0.5c3.9-2.1,8.3-3.2,12.8-3.2
		c14.7,0,26.7,12,26.7,26.7S44.7,57,30,57S3.3,45,3.3,30.3c0-7.2,2.8-13.9,7.9-19c0.5-0.4,0.5-1.2,0-1.6c-0.4-0.5-1.2-0.5-1.6,0
		C4.1,15.1,1,22.5,1,30.3c0,16,13,29,29,29s29-13,29-29S46,1.3,30,1.3z"/>
	<path class="st7" d="M19.9,46.8c0.2,0.3,0.6,0.5,0.9,0.5c0.2,0,0.5-0.1,0.7-0.2l22.6-15.9c0.3-0.2,0.5-0.6,0.5-0.9
		s-0.2-0.7-0.5-0.9L21.5,13.4c-0.4-0.2-0.8-0.3-1.2-0.1c-0.4,0.2-0.6,0.6-0.6,1v21.7c0,0.6,0.5,1.1,1.1,1.1s1.1-0.5,1.1-1.1V16.6
		l19.5,13.7l-21.3,15C19.6,45.6,19.5,46.3,19.9,46.8z"/>
</g>
</svg>
